<svg xmlns="http://www.w3.org/2000/svg" xmlns:xlink="http://www.w3.org/1999/xlink" xmlns:serif="http://www.serif.com/" width="100%" height="100%" viewBox="0 0 1472 251" xml:space="preserve" style="fill-rule:evenodd;clip-rule:evenodd;stroke-linejoin:round;stroke-miterlimit:2;"> <g transform="matrix(1,0,0,1,267.261,514.45)"> <g transform="matrix(0.626488,0,0,0.626488,-485.485,-1226.43)"> <g transform="matrix(8.86357,0,0,8.86357,-3178.17,-4094.64)"> <g transform="matrix(50,0,0,50,398.064,627.244)"> <path d="M-0.004,-0L0.284,-0.7L0.452,-0.7L0.736,-0L0.579,-0L0.508,-0.184L0.219,-0.184L0.147,-0L-0.004,-0ZM0.264,-0.3L0.464,-0.3L0.365,-0.558L0.264,-0.3Z" style="fill:rgb(0,25,103);fill-rule:nonzero;"></path> </g> <g transform="matrix(50,0,0,50,433.214,627.131)"> <path d="M0.295,0.007C0.258,0.007 0.224,0 0.192,-0.014C0.159,-0.028 0.131,-0.047 0.107,-0.071C0.083,-0.095 0.064,-0.123 0.051,-0.156C0.037,-0.189 0.03,-0.224 0.03,-0.261C0.03,-0.298 0.037,-0.333 0.051,-0.366C0.065,-0.399 0.084,-0.427 0.108,-0.451C0.132,-0.475 0.161,-0.494 0.194,-0.508C0.227,-0.521 0.262,-0.528 0.299,-0.528C0.325,-0.528 0.35,-0.525 0.375,-0.518C0.4,-0.51 0.422,-0.5 0.443,-0.486L0.443,-0.521L0.578,-0.521L0.578,0.133L0.441,0.163L0.441,-0.041C0.42,-0.026 0.398,-0.014 0.373,-0.006C0.347,0.003 0.322,0.007 0.295,0.007ZM0.165,-0.261C0.165,-0.219 0.18,-0.183 0.209,-0.154C0.238,-0.125 0.274,-0.11 0.317,-0.11C0.342,-0.11 0.366,-0.114 0.387,-0.123C0.407,-0.132 0.426,-0.144 0.441,-0.16L0.441,-0.363C0.426,-0.378 0.408,-0.39 0.387,-0.399C0.365,-0.408 0.342,-0.412 0.317,-0.412C0.274,-0.412 0.238,-0.398 0.209,-0.369C0.18,-0.339 0.165,-0.304 0.165,-0.261Z" style="fill:rgb(0,25,103);fill-rule:nonzero;"></path> </g> <g transform="matrix(50,0,0,50,464.814,627.131)"> <path d="M0.187,-0.521L0.187,-0.218C0.187,-0.185 0.197,-0.158 0.217,-0.138C0.236,-0.118 0.262,-0.108 0.295,-0.108C0.318,-0.108 0.339,-0.113 0.358,-0.122C0.376,-0.131 0.391,-0.143 0.403,-0.16L0.403,-0.521L0.54,-0.521L0.54,-0L0.403,-0L0.403,-0.042C0.383,-0.025 0.361,-0.013 0.336,-0.004C0.311,0.006 0.285,0.01 0.256,0.01C0.196,0.01 0.147,-0.01 0.108,-0.049C0.069,-0.088 0.05,-0.137 0.05,-0.198L0.05,-0.521L0.187,-0.521Z" style="fill:rgb(0,25,103);fill-rule:nonzero;"></path> </g> <g transform="matrix(50,0,0,50,494.464,627.131)"> <path d="M0.122,-0.583C0.101,-0.583 0.082,-0.591 0.067,-0.606C0.052,-0.621 0.044,-0.64 0.044,-0.661C0.044,-0.682 0.052,-0.701 0.067,-0.716C0.082,-0.731 0.101,-0.739 0.122,-0.739C0.143,-0.739 0.162,-0.731 0.177,-0.716C0.192,-0.701 0.2,-0.682 0.2,-0.661C0.2,-0.64 0.192,-0.621 0.177,-0.606C0.162,-0.591 0.143,-0.583 0.122,-0.583ZM0.191,-0.521L0.191,-0L0.054,-0L0.054,-0.521L0.191,-0.521Z" style="fill:rgb(0,25,103);fill-rule:nonzero;"></path> </g> <g transform="matrix(50,0,0,50.3944,506.664,627.131)"> <path d="M0.191,-0.73L0.191,-0L0.054,-0L0.054,-0.7L0.191,-0.73Z" style="fill:rgb(0,25,103);fill-rule:nonzero;"></path> </g> <g transform="matrix(50,0,0,50,518.864,627.131)"> <path d="M0.219,0.009C0.163,0.009 0.117,-0.006 0.082,-0.036C0.047,-0.065 0.029,-0.104 0.029,-0.151C0.029,-0.2 0.048,-0.239 0.086,-0.267C0.124,-0.295 0.176,-0.309 0.243,-0.309C0.264,-0.309 0.286,-0.307 0.307,-0.304C0.328,-0.301 0.349,-0.296 0.37,-0.289L0.37,-0.326C0.37,-0.356 0.361,-0.379 0.342,-0.394C0.323,-0.409 0.296,-0.417 0.26,-0.417C0.238,-0.417 0.214,-0.413 0.189,-0.407C0.163,-0.4 0.134,-0.389 0.101,-0.374L0.051,-0.475C0.092,-0.494 0.131,-0.508 0.17,-0.517C0.208,-0.526 0.246,-0.531 0.283,-0.531C0.353,-0.531 0.408,-0.514 0.447,-0.481C0.486,-0.447 0.505,-0.399 0.505,-0.338L0.505,-0L0.37,-0L0.37,-0.036C0.348,-0.021 0.325,-0.009 0.301,-0.002C0.276,0.005 0.249,0.009 0.219,0.009ZM0.16,-0.154C0.16,-0.134 0.169,-0.118 0.186,-0.107C0.203,-0.095 0.226,-0.089 0.255,-0.089C0.278,-0.089 0.299,-0.092 0.318,-0.098C0.337,-0.103 0.354,-0.111 0.37,-0.122L0.37,-0.2C0.353,-0.207 0.336,-0.212 0.318,-0.215C0.299,-0.218 0.28,-0.219 0.26,-0.219C0.229,-0.219 0.204,-0.213 0.187,-0.202C0.169,-0.19 0.16,-0.174 0.16,-0.154Z" style="fill:rgb(0,25,103);fill-rule:nonzero;"></path> </g> </g> <g transform="matrix(6.39028,0,0,6.39028,-736.799,-2594.15)"> <g transform="matrix(40.1,0,0,40.1,398.064,627.244)"> <path d="M0.15,-0.051L0.501,-0.051L0.501,-0L0.09,-0L0.088,-0.645L0.149,-0.645L0.15,-0.051Z" style="fill:rgb(122,127,136);fill-rule:nonzero;"></path> </g> <g transform="matrix(40.1,0,0,40.1,418.79,627.131)"> <path d="M0.281,0.01C0.236,0.01 0.195,-0.001 0.159,-0.023C0.123,-0.046 0.094,-0.076 0.074,-0.116C0.054,-0.156 0.044,-0.2 0.044,-0.249L0.044,-0.27C0.044,-0.321 0.054,-0.367 0.073,-0.407C0.093,-0.448 0.121,-0.48 0.156,-0.503C0.191,-0.526 0.229,-0.538 0.27,-0.538C0.334,-0.538 0.385,-0.516 0.423,-0.472C0.46,-0.429 0.479,-0.369 0.479,-0.293L0.479,-0.26L0.102,-0.26L0.102,-0.249C0.102,-0.189 0.119,-0.139 0.154,-0.099C0.188,-0.059 0.231,-0.04 0.283,-0.04C0.314,-0.04 0.342,-0.045 0.366,-0.057C0.39,-0.068 0.412,-0.086 0.431,-0.111L0.468,-0.083C0.425,-0.021 0.362,0.01 0.281,0.01ZM0.27,-0.488C0.226,-0.488 0.189,-0.472 0.159,-0.44C0.129,-0.408 0.111,-0.364 0.104,-0.31L0.421,-0.31L0.421,-0.316C0.419,-0.367 0.405,-0.409 0.377,-0.44C0.35,-0.472 0.314,-0.488 0.27,-0.488Z" style="fill:rgb(122,127,136);fill-rule:nonzero;"></path> </g> <g transform="matrix(40.1,0,0,40.1,439.105,627.131)"> <path d="M0.41,-0C0.404,-0.017 0.4,-0.041 0.398,-0.074C0.378,-0.047 0.352,-0.026 0.32,-0.012C0.288,0.003 0.255,0.01 0.219,0.01C0.168,0.01 0.127,-0.004 0.096,-0.033C0.065,-0.061 0.049,-0.097 0.049,-0.14C0.049,-0.192 0.07,-0.232 0.113,-0.262C0.156,-0.292 0.215,-0.307 0.292,-0.307L0.398,-0.307L0.398,-0.367C0.398,-0.405 0.386,-0.435 0.363,-0.456C0.34,-0.478 0.306,-0.489 0.261,-0.489C0.221,-0.489 0.187,-0.478 0.16,-0.458C0.133,-0.437 0.12,-0.412 0.12,-0.382L0.062,-0.383C0.062,-0.425 0.081,-0.461 0.12,-0.492C0.159,-0.523 0.207,-0.538 0.264,-0.538C0.323,-0.538 0.37,-0.523 0.404,-0.494C0.438,-0.464 0.455,-0.423 0.456,-0.371L0.456,-0.121C0.456,-0.069 0.461,-0.031 0.472,-0.006L0.472,-0L0.41,-0ZM0.226,-0.042C0.265,-0.042 0.3,-0.051 0.331,-0.07C0.362,-0.089 0.384,-0.114 0.398,-0.146L0.398,-0.262L0.293,-0.262C0.235,-0.262 0.19,-0.251 0.157,-0.23C0.124,-0.21 0.107,-0.181 0.107,-0.145C0.107,-0.115 0.118,-0.091 0.14,-0.071C0.162,-0.052 0.191,-0.042 0.226,-0.042Z" style="fill:rgb(122,127,136);fill-rule:nonzero;"></path> </g> <g transform="matrix(40.1,0,0,40.1,458.581,627.244)"> <path d="M0.32,-0.479C0.308,-0.481 0.295,-0.482 0.281,-0.482C0.244,-0.482 0.213,-0.472 0.188,-0.451C0.163,-0.431 0.145,-0.402 0.134,-0.363L0.134,-0L0.076,-0L0.076,-0.528L0.133,-0.528L0.134,-0.444C0.165,-0.507 0.215,-0.538 0.283,-0.538C0.299,-0.538 0.312,-0.536 0.322,-0.532L0.32,-0.479Z" style="fill:rgb(122,127,136);fill-rule:nonzero;"></path> </g> <g transform="matrix(40.1,0,0,40.1,472.07,627.244)"> <path d="M0.132,-0.528L0.134,-0.438C0.154,-0.471 0.178,-0.495 0.208,-0.512C0.238,-0.53 0.27,-0.538 0.306,-0.538C0.363,-0.538 0.405,-0.522 0.433,-0.49C0.46,-0.458 0.474,-0.41 0.475,-0.347L0.475,-0L0.417,-0L0.417,-0.347C0.416,-0.394 0.406,-0.43 0.386,-0.453C0.367,-0.476 0.335,-0.487 0.292,-0.487C0.256,-0.487 0.224,-0.476 0.196,-0.453C0.168,-0.431 0.148,-0.4 0.134,-0.362L0.134,-0L0.076,-0L0.076,-0.528L0.132,-0.528Z" style="fill:rgb(122,127,136);fill-rule:nonzero;"></path> </g> <g transform="matrix(40.1,0,0,40.1,491.444,627.244)"> <path d="M0.142,-0L0.083,-0L0.083,-0.528L0.142,-0.528L0.142,-0ZM0.073,-0.681C0.073,-0.692 0.076,-0.702 0.083,-0.709C0.091,-0.717 0.1,-0.721 0.113,-0.721C0.125,-0.721 0.135,-0.717 0.142,-0.709C0.15,-0.702 0.153,-0.692 0.153,-0.681C0.153,-0.67 0.15,-0.661 0.142,-0.653C0.135,-0.646 0.125,-0.642 0.113,-0.642C0.1,-0.642 0.091,-0.646 0.083,-0.653C0.076,-0.661 0.073,-0.67 0.073,-0.681Z" style="fill:rgb(122,127,136);fill-rule:nonzero;"></path> </g> <g transform="matrix(40.1,0,0,40.1,497.93,627.244)"> <path d="M0.132,-0.528L0.134,-0.438C0.154,-0.471 0.178,-0.495 0.208,-0.512C0.238,-0.53 0.27,-0.538 0.306,-0.538C0.363,-0.538 0.405,-0.522 0.433,-0.49C0.46,-0.458 0.474,-0.41 0.475,-0.347L0.475,-0L0.417,-0L0.417,-0.347C0.416,-0.394 0.406,-0.43 0.386,-0.453C0.367,-0.476 0.335,-0.487 0.292,-0.487C0.256,-0.487 0.224,-0.476 0.196,-0.453C0.168,-0.431 0.148,-0.4 0.134,-0.362L0.134,-0L0.076,-0L0.076,-0.528L0.132,-0.528Z" style="fill:rgb(122,127,136);fill-rule:nonzero;"></path> </g> <g transform="matrix(40.1,0,0,40.1,518.284,627.131)"> <path d="M0.053,-0.269C0.053,-0.352 0.071,-0.417 0.108,-0.466C0.144,-0.514 0.194,-0.538 0.257,-0.538C0.329,-0.538 0.383,-0.509 0.421,-0.452L0.424,-0.528L0.479,-0.528L0.479,-0.011C0.479,0.057 0.459,0.111 0.421,0.151C0.383,0.191 0.332,0.21 0.267,0.21C0.23,0.21 0.195,0.202 0.161,0.186C0.128,0.169 0.102,0.147 0.083,0.12L0.115,0.085C0.157,0.136 0.206,0.161 0.263,0.161C0.312,0.161 0.35,0.147 0.377,0.118C0.404,0.089 0.418,0.049 0.419,-0.002L0.419,-0.068C0.382,-0.016 0.327,0.01 0.256,0.01C0.195,0.01 0.146,-0.015 0.108,-0.063C0.071,-0.112 0.053,-0.178 0.053,-0.261L0.053,-0.269ZM0.112,-0.259C0.112,-0.191 0.125,-0.138 0.152,-0.099C0.179,-0.06 0.217,-0.041 0.267,-0.041C0.339,-0.041 0.389,-0.073 0.419,-0.138L0.419,-0.383C0.406,-0.417 0.386,-0.443 0.36,-0.461C0.335,-0.478 0.304,-0.487 0.268,-0.487C0.218,-0.487 0.18,-0.468 0.153,-0.429C0.125,-0.391 0.112,-0.334 0.112,-0.259Z" style="fill:rgb(122,127,136);fill-rule:nonzero;"></path> </g> </g> <g transform="matrix(4.47761,0,0,9.70623,-51363.9,-12010.4)"> <rect x="11858.3" y="1354.64" width="2.022" height="40.892" style="fill:rgb(243,77,54);"></rect> </g> </g> </g> </svg>